<svg xmlns="http://www.w3.org/2000/svg" fill="none" height="72" viewBox="0 0 96 72" width="96"><path d="m0 0h96v72h-96z" fill="#fff"></path><path clip-rule="evenodd" d="m48 7c-16.0163 0-29 12.9837-29 29s12.9837 29 29 29 29-12.9837 29-29-12.9837-29-29-29zm-32 29c0-17.6731 14.3269-32 32-32s32 14.3269 32 32-14.3269 32-32 32-32-14.3269-32-32z" fill="#000" fill-rule="evenodd"></path><path d="m48.5 66.5c16.8447 0 30-13.6553 30-30.5s-13.6553-30.5-30.5-30.5l-6.5 6.5v2.5h5l5-5 3.5 3.5-6.5 6.5h-8.5l-3.5 4v8h7.5l3-3h6l6.5-6h8v5h-5l-4 4h8l3.5 4.5-4 4 5 5-3 3-3.5-3.5h-4.5l-6.5-6h-13.5l-7.5 7.6468v8.8532l5.5 5.5h10.5z" fill="#a4a7e3"></path><path d="m35.5 18.5v-6l-8 8h6z" fill="#a4a7e3"></path><path clip-rule="evenodd" d="m46.9393 4.43934 1.0607-.43934c17.6731 0 32 14.3269 32 32 0 17.6405-13.7947 32-31.5 32l-1.5-1.5v-4.5h-9l-1.0607-.4393-5.5-5.5-.4393-1.0607v-8.8532l.4291-1.0504 7.5-7.6467 1.0709-.4497h13.5l1.0174.3978 6.0691 5.6022h3.9135l1.0607.4393 2.4393 2.4394.8787-.8787-3.9394-3.9393v-2.1214l3.0637-3.0636-2.2366-2.8757h-7.2664l-1.0607-2.5607 4-4 1.0607-.4393h3.5v-2h-5.9135l-6.0691 5.6022-1.0174.3978h-5.3787l-2.5606 2.5607-1.0607.4393h-7.5l-1.5-1.5v-8l.3711-.9878 3.5-4 1.1289-.5122h7.8787l5-5-1.3787-1.3787-3.9393 3.9394-1.0607.4393h-5l-1.5-1.5v-2.5l.4393-1.0607zm1.6756 2.56705-5.6149 5.61491v.3787h2.8787l4.5606-4.56066h2.1214l3.5 3.49996v2.1214l-6.5 6.5-1.0607.4393h-7.8193l-2.6807 3.0636v5.9364h5.3787l2.5606-2.5607 1.0607-.4393h5.4135l6.0691-5.6022 1.0174-.3978h8l1.5 1.5v5l-1.5 1.5h-4.3787l-1 1h4.3787l1.184.5791 3.5 4.5-.1233 1.9816-2.9394 2.9393 3.9394 3.9393v2.1214l-3 3h-2.1214l-3.0606-3.0607h-3.8787l-1.0174-.3978-6.0691-5.6022h-12.2836l-6.6299 6.7596v7.6191l4.6213 4.6213h9.8787l1.5 1.5v4.4618c15.2602-.7809 27-13.4185 27-28.9618 0-15.8108-12.6527-28.66635-28.3851-28.99361zm-17.4936 11.99361h1.7574l1.1213-1.1213v-1.7574zm-4.682.4393 8-8 2.5607 1.0607v6l-.4393 1.0607-2 2-1.0607.4393h-6z" fill="#000" fill-rule="evenodd"></path><path clip-rule="evenodd" d="m64 14.5c0 3.0376 2.4624 5.5 5.5 5.5s5.5-2.4624 5.5-5.5-2.4624-5.5-5.5-5.5-5.5 2.4624-5.5 5.5z" fill="#000" fill-rule="evenodd"></path><path d="m68 39.5c1.933 0 3.5-1.567 3.5-3.5s-1.567-3.5-3.5-3.5-3.5 1.567-3.5 3.5 1.567 3.5 3.5 3.5z" fill="#fff"></path><path clip-rule="evenodd" d="m68 34c-1.1046 0-2 .8954-2 2s.8954 2 2 2 2-.8954 2-2-.8954-2-2-2zm-5 2c0-2.7614 2.2386-5 5-5s5 2.2386 5 5-2.2386 5-5 5-5-2.2386-5-5z" fill="#000" fill-rule="evenodd"></path><path d="m48 54.5c1.933 0 3.5-1.567 3.5-3.5s-1.567-3.5-3.5-3.5-3.5 1.567-3.5 3.5 1.567 3.5 3.5 3.5z" fill="#fff"></path><path clip-rule="evenodd" d="m48 49c-1.1046 0-2 .8954-2 2s.8954 2 2 2 2-.8954 2-2-.8954-2-2-2zm-5 2c0-2.7614 2.2386-5 5-5s5 2.2386 5 5-2.2386 5-5 5-5-2.2386-5-5z" fill="#000" fill-rule="evenodd"></path><path d="m38 31.5c1.933 0 3.5-1.567 3.5-3.5s-1.567-3.5-3.5-3.5-3.5 1.567-3.5 3.5 1.567 3.5 3.5 3.5z" fill="#fff"></path><path clip-rule="evenodd" d="m38 26c-1.1046 0-2 .8954-2 2s.8954 2 2 2 2-.8954 2-2-.8954-2-2-2zm-5 2c0-2.7614 2.2386-5 5-5s5 2.2386 5 5-2.2386 5-5 5-5-2.2386-5-5z" fill="#000" fill-rule="evenodd"></path><path d="m57 24.5c1.933 0 3.5-1.567 3.5-3.5s-1.567-3.5-3.5-3.5-3.5 1.567-3.5 3.5 1.567 3.5 3.5 3.5z" fill="#fff"></path><path clip-rule="evenodd" d="m57 19c-1.1046 0-2 .8954-2 2s.8954 2 2 2 2-.8954 2-2-.8954-2-2-2zm-5 2c0-2.7614 2.2386-5 5-5s5 2.2386 5 5-2.2386 5-5 5-5-2.2386-5-5z" fill="#000" fill-rule="evenodd"></path></svg>