<svg xmlns="http://www.w3.org/2000/svg" fill="none" height="72" viewBox="0 0 96 72" width="96"><path d="m0 0h96v72h-96z" fill="#fff"></path><g clip-rule="evenodd" fill-rule="evenodd"><path d="m33 11h20.5v3h-20.5z" fill="#a4a7e3"></path><path d="m14 40h20.5v3h-20.5z" fill="#a4a7e3"></path><path d="m14 29h20.5v3h-20.5z" fill="#a4a7e3"></path><path d="m33 58h20.5v3h-20.5z" fill="#a4a7e3"></path><path d="m21 49h19.5v3h-19.5z" fill="#a4a7e3"></path><path d="m21 20h19.5v3h-19.5z" fill="#a4a7e3"></path><path d="m52 11h14v5.1954c.7025.2483 1.3878.5329 2.0537.8515l3.6742-3.6743 9.8995 9.8995-3.6742 3.6743c.3185.6658.6031 1.3511.8514 2.0536h5.1954v14h-5.1954c-.2483.7025-.5329 1.3878-.8514 2.0536l3.6742 3.6743-9.8995 9.8995-3.6742-3.6743c-.6659.3186-1.3512.6032-2.0537.8515v5.1954h-14v-5.1954c-.7025-.2483-1.3878-.5329-2.0536-.8514l-3.6743 3.6742-9.8995-9.8995 3.6743-3.6742c-.3186-.6659-.6032-1.3512-.8515-2.0537h-5.1954v-14h5.1954c.2483-.7025.5329-1.3878.8515-2.0537l-3.6743-3.6742 9.8995-9.8995 3.6743 3.6743c.6658-.3186 1.3511-.6032 2.0536-.8515zm3 3v4.4095l-1.0777.3162c-1.2424.3646-2.4294.8598-3.545 1.4698l-.9858.5391-3.1194-3.1194-5.6569 5.6569 3.1194 3.1194-.5391.9858c-.61 1.1156-1.1052 2.3025-1.4698 3.545l-.3162 1.0777h-4.4095v8h4.4095l.3162 1.0777c.3646 1.2425.8598 2.4294 1.4698 3.545l.5391.9858-3.1194 3.1194 5.6569 5.6569 3.1194-3.1194.9858.5391c1.1156.61 2.3026 1.1052 3.545 1.4698l1.0777.3162v4.4095h8v-4.4095l1.0777-.3162c1.2425-.3646 2.4294-.8598 3.545-1.4698l.9858-.5391 3.1194 3.1194 5.6569-5.6569-3.1194-3.1194.5391-.9858c.61-1.1156 1.1052-2.3026 1.4698-3.545l.3162-1.0777h4.4095v-8h-4.4095l-.3162-1.0777c-.3646-1.2424-.8598-2.4294-1.4698-3.545l-.5391-.9858 3.1194-3.1194-5.6569-5.6569-3.1194 3.1194-.9858-.5391c-1.1156-.61-2.3025-1.1052-3.545-1.4698l-1.0777-.3162v-4.4095zm-7 22c0-6.0751 4.9249-11 11-11s11 4.9249 11 11-4.9249 11-11 11-11-4.9249-11-11zm11-8c-4.4183 0-8 3.5817-8 8s3.5817 8 8 8 8-3.5817 8-8-3.5817-8-8-8z" fill="#000"></path><path d="m54 36c0 2.7614 2.2386 5 5 5s5-2.2386 5-5-2.2386-5-5-5-5 2.2386-5 5z" fill="#000"></path></g></svg>