<svg xmlns="http://www.w3.org/2000/svg" width="200" height="230" viewBox="0 0 200 230" fill="none"><path d="M119.483 84.934L118.583 86.134C127.383 75.334 127.783 54.434 125.283 47.934C112.183 13.434 72.4834 21.634 72.4834 21.634C70.4834 15.834 68.0834 8.33397 66.2834 6.43397C64.7834 4.93397 58.6834 5.83397 56.4834 9.43397C55.4834 11.034 58.2834 20.434 58.2834 20.434L40.8834 25.834C37.8834 15.734 36.7834 13.934 33.1834 13.434C31.5834 13.234 25.8834 14.734 24.3834 17.634C22.8834 20.534 27.9834 30.134 27.9834 30.134L2.9834 38.234L17.2834 56.934L24.2834 55.534C47.4834 110.834 39.3834 153.634 39.3834 153.634L30.8834 155.034L20.9834 174.234L51.5834 177.434C51.5834 177.434 49.7834 187.434 50.8834 191.434C51.8834 195.234 54.4834 197.334 61.8834 196.334C61.8834 196.334 63.7834 196.134 65.5834 193.534C67.8834 190.034 71.2834 176.734 72.0834 176.834C77.0834 177.934 86.4834 178.334 89.9834 177.634C89.9834 177.634 85.7834 192.334 91.0834 194.234C96.4834 196.134 95.8834 195.734 100.083 195.434C106.083 195.034 110.783 173.234 110.783 173.234C110.783 173.234 150.883 168.334 150.883 129.934C150.883 91.534 119.483 84.934 119.483 84.934ZM56.0834 89.134C49.8834 84.834 44.9834 62.634 42.5834 53.434C41.0834 47.634 41.8834 44.234 61.6834 39.034C61.6834 39.034 79.0834 33.734 92.5834 35.734C92.5834 35.734 92.1834 31.834 98.0834 33.434C100.283 34.034 101.783 40.234 103.283 41.634C114.183 51.834 110.583 67.334 105.283 75.134C98.0834 85.434 61.3834 92.834 56.0834 89.134ZM124.783 149.234C111.683 161.334 67.4834 161.934 62.2834 156.434C56.7834 150.634 56.8834 115.234 59.6834 110.534C63.7834 103.334 95.1834 99.234 113.783 103.734C132.383 108.234 137.883 137.134 124.783 149.234Z" fill="#A3A7D3"></path><path d="M76.6837 15.8337C90.8837 14.0337 107.984 16.9337 119.184 26.3337C137.884 42.1337 137.384 80.7337 113.384 91.4337C111.384 92.3337 113.284 92.8337 114.484 92.3337C133.884 83.7337 139.584 59.0337 132.484 40.2337C125.984 22.9337 108.484 15.5337 91.1837 14.3337C86.4837 13.9337 81.7837 14.0337 77.1837 14.5337C75.8837 14.7337 74.4837 16.1337 76.6837 15.8337Z" fill="black"></path><path d="M67.8835 195.434C61.8835 196.034 52.9835 196.334 52.4835 188.634C52.2835 184.734 52.5835 180.934 53.1835 177.134C53.1835 176.834 52.8835 176.734 52.6835 176.634C46.9835 176.034 41.2835 175.334 35.5835 174.634L26.9835 173.534C26.0835 173.434 23.2835 172.934 23.3835 173.234C23.4835 173.534 25.0835 170.734 25.2835 170.434L28.8835 163.734C30.5835 160.434 32.3835 157.234 34.0835 153.934L31.8835 154.834L38.7835 154.334C39.2835 154.334 40.7835 154.034 40.9835 153.334C43.0835 144.534 43.2835 134.934 43.0835 125.834C42.4835 101.434 36.3835 77.4339 26.7835 55.0339C26.5835 54.6339 25.7835 54.7339 25.4835 54.7339L21.7835 55.4339C20.8835 55.5339 20.0835 55.7339 19.2835 55.9339C18.0835 56.4339 18.4835 55.4339 19.2835 56.2339C17.7835 54.6339 16.4835 52.9339 15.1835 51.1339L4.38351 37.6339L3.08351 38.7339L27.8835 30.7339C28.2835 30.6339 29.2835 30.3339 29.2835 29.7339C28.7835 25.2339 22.9835 17.6339 26.7835 13.5339C29.0835 11.1339 35.8835 8.93387 38.6835 11.3339C41.9835 14.1339 43.0835 20.3339 44.2835 24.2339C44.4835 24.7339 45.6835 24.5339 45.9835 24.4339L58.2835 20.8339C58.5835 20.7339 59.8835 20.3339 59.6835 19.8339C58.3835 16.5339 55.7835 10.6339 57.0835 7.03387C58.3835 3.23387 66.3835 1.33387 69.1835 3.73387C71.9835 6.13387 73.9835 11.8339 75.3835 15.4339C75.6835 16.2339 78.6835 15.3339 78.4835 14.6339C77.0835 11.1339 74.5835 3.13387 70.5835 1.33387C67.3835 -0.0661297 61.7835 2.03387 58.9835 3.23387C55.3835 4.73387 53.6835 6.13387 53.9835 10.2339C54.2835 13.8339 55.1835 17.3339 56.6835 20.7339L58.0835 19.7339L45.7835 23.3339L47.4835 23.5339C46.0835 19.2339 44.7835 11.5339 40.1835 9.33387C36.7835 7.83387 31.9835 9.73387 28.8835 11.0339C24.9835 12.6339 22.3835 14.2339 22.8835 18.7339C23.3835 22.8339 25.8835 26.6339 26.2835 30.6339L27.6835 29.6339L2.88351 37.6339C2.58351 37.7339 1.18351 38.1339 1.58351 38.7339L16.2835 57.3339C16.4835 57.6339 17.1835 57.5339 17.4835 57.4339L24.8835 56.0339L23.5835 55.7339C32.9835 77.7339 39.0835 101.334 39.8835 125.434C40.1835 134.734 40.0835 144.634 37.8835 153.734L40.0835 152.734C37.7835 152.934 34.5835 152.534 32.3835 153.434C30.7835 154.134 30.3835 155.434 29.5835 157.034L20.5835 173.934C20.3835 174.234 20.9835 174.334 21.0835 174.434L32.9835 175.934L42.7835 177.134C43.8835 177.234 49.7835 177.534 50.0835 177.834C50.6835 178.634 49.4835 183.634 49.4835 184.634C49.3835 187.134 48.8835 190.834 50.1835 193.134C53.0835 198.234 62.6835 197.234 67.3835 196.734C68.6835 196.634 69.9835 195.134 67.8835 195.434Z" fill="black"></path><path d="M128.284 85.2341C147.284 89.5341 155.284 111.534 155.584 128.734C155.884 142.634 150.784 155.634 139.584 164.234C133.284 169.034 125.884 172.334 118.184 173.934C116.084 174.334 115.384 174.634 114.484 176.634C112.484 181.134 110.684 185.734 108.684 190.334C108.384 191.034 111.384 190.734 111.684 189.834C113.884 184.734 115.984 179.634 118.084 174.534L116.284 175.434C128.984 173.634 142.184 166.634 149.984 156.434C163.784 138.434 161.184 107.034 144.384 91.7341C140.584 88.3341 135.684 85.1341 130.684 83.9341C129.984 83.8341 127.184 85.0341 128.284 85.2341Z" fill="black"></path><path d="M72.8833 193.034C74.2833 189.134 75.6833 185.234 77.1833 181.434C77.5833 180.534 77.8833 179.534 78.3833 178.534C78.4833 178.334 78.6833 177.634 78.9833 177.534C77.6833 178.234 80.0833 178.534 80.2833 178.534C82.9833 179.534 87.1833 178.534 89.8833 178.034L88.6833 177.534C87.4833 181.734 85.1833 189.834 88.3833 193.634C90.5833 196.234 95.8833 196.434 98.9833 196.634C102.583 196.834 106.483 196.534 109.683 194.634C111.383 193.634 108.783 193.334 107.883 193.934C104.283 196.034 96.2833 195.834 92.5833 193.734C90.4833 192.534 90.0833 190.434 89.9833 188.134C89.9833 184.434 90.4833 180.734 91.6833 177.234C91.8833 176.634 90.7833 176.634 90.4833 176.734C87.7833 177.334 84.9833 177.434 82.1833 177.234C80.8833 177.134 79.1833 176.334 77.8833 176.834C76.5833 177.234 76.1833 178.234 75.5833 179.434C73.4833 184.034 71.6833 188.834 70.1833 193.634C69.6833 194.334 72.5833 194.034 72.8833 193.034Z" fill="black"></path><path d="M101.483 70.8338C100.283 75.2338 95.1833 77.4338 91.2833 79.1338C85.9833 81.2338 80.4833 82.8338 74.8833 83.6338C71.0833 84.2338 65.7833 85.4338 61.9833 84.0338C58.9833 82.9338 57.9833 78.7338 56.9833 76.0338C53.7833 68.1338 51.0833 60.0338 48.9833 51.7338C47.1833 43.8338 57.7833 41.0338 63.5833 39.6338C65.5833 39.1338 65.0833 37.4338 63.0833 37.9338C57.2833 39.3338 45.1833 42.5338 45.2833 50.5338C45.3833 55.3338 48.0833 60.7338 49.4833 65.1338C50.9833 69.8338 52.5833 74.6338 54.4833 79.2338C55.3833 81.4338 56.2833 84.1338 58.5833 85.3338C61.1833 86.6338 64.8833 86.2338 67.5833 86.1338C72.3833 85.8338 77.1833 85.0338 81.8833 83.8338C89.0833 82.0338 102.083 78.7338 104.483 70.4338C105.083 69.2338 101.783 69.6338 101.483 70.8338Z" fill="black"></path><path d="M63.1836 109.334C61.6836 118.234 61.8836 127.634 62.6836 136.634C63.0836 141.534 62.8836 151.534 67.6836 154.534C72.0836 157.234 78.9836 157.034 83.9836 156.934C91.6836 156.834 99.2836 155.934 106.684 154.234C120.284 151.134 132.984 144.934 133.684 129.234C134.084 121.834 131.784 114.534 127.184 108.734C122.184 102.834 115.084 101.234 107.684 100.534C97.6836 99.634 87.5836 100.134 77.6836 102.034C73.4836 102.934 64.6836 104.334 63.1836 109.334C62.8836 110.434 66.0836 109.934 66.3836 108.934C67.6836 104.434 78.1836 103.534 81.8836 103.034C89.9836 101.834 98.0836 101.634 106.184 102.334C113.284 103.034 119.784 104.634 124.484 110.434C128.684 115.934 130.884 122.734 130.484 129.734C130.184 135.834 127.984 142.234 122.984 146.134C117.984 150.034 111.584 151.634 105.684 152.934C98.9836 154.434 92.0836 155.234 85.1836 155.234C80.7836 155.234 74.5836 155.634 70.5836 153.334C66.0836 150.634 66.1836 140.534 65.7836 135.834C64.9836 126.934 64.7836 117.834 66.2836 109.034C66.5836 107.734 63.3836 108.234 63.1836 109.334Z" fill="black"></path><path d="M39.8835 106.734C39.8835 106.734 24.3835 97.2341 13.3835 102.334C6.58349 105.534 3.68349 121.334 26.8835 122.734C31.4835 123.034 39.6835 122.834 41.1835 134.934L36.1835 133.734C35.8835 129.234 29.9835 128.634 26.6835 128.434C5.18349 127.434 -1.21651 116.434 0.183492 107.434C4.18349 81.5341 36.7835 90.7341 36.7835 90.7341L39.8835 106.734Z" fill="black"></path><path d="M28.0837 144.334C25.3837 145.134 26.3837 140.934 26.7837 139.834C27.0837 139.034 27.5837 138.234 28.0837 137.534C28.5837 136.934 29.2837 135.634 29.6837 136.934C29.7837 137.334 31.7837 136.834 31.6837 136.434C31.1837 134.934 29.3837 135.434 28.2837 136.034C27.0837 136.734 26.0837 137.734 25.4837 139.034C24.7837 140.334 23.7837 142.334 24.3837 143.834C24.9837 145.634 26.8837 145.334 28.2837 144.934C29.3837 144.534 29.2837 143.934 28.0837 144.334Z" fill="black"></path><path d="M30.7837 133.234C31.8837 131.734 33.4837 130.734 35.2837 130.234C39.3837 129.434 45.1837 131.334 44.7837 140.434C44.4837 147.434 38.3837 147.334 37.4837 145.034C36.4837 142.434 39.7837 138.034 40.7837 139.334C40.7837 139.334 42.0837 140.534 40.7837 143.034" fill="white"></path><path d="M31.7833 133.334C33.5833 130.834 36.7833 130.034 39.5833 131.334C42.2833 132.634 43.3833 135.634 43.6833 138.434C43.8833 140.334 42.9833 148.034 39.1833 145.434C37.8833 144.534 38.4833 142.534 39.0833 141.334C40.6833 138.334 40.4833 141.434 39.7833 143.134C39.4833 143.834 41.5833 143.634 41.8833 142.934C42.4833 141.334 42.7833 138.334 40.2833 138.534C38.0833 138.634 36.4833 141.534 36.1833 143.334C35.4833 147.934 41.2833 147.834 43.6833 145.534C47.5833 141.834 46.0833 133.134 41.5833 130.534C37.4833 128.334 32.3833 129.534 29.6833 133.234C29.1833 134.034 31.2833 133.934 31.7833 133.334Z" fill="black"></path><path d="M33.7835 144.434C32.2835 145.734 31.8835 144.134 31.9835 142.834C32.1835 141.534 32.5835 140.334 33.1835 139.234C33.5835 138.234 34.2835 137.334 35.1835 136.634C35.4835 136.534 35.2835 136.534 35.1835 136.534C35.2835 136.634 35.3835 136.634 35.4835 136.734C35.7835 137.234 35.9835 137.934 36.0835 138.534C36.1835 139.234 38.1835 138.734 38.0835 138.034C37.7835 136.334 36.8835 134.834 34.9835 135.534C33.2835 136.034 32.0835 137.834 31.3835 139.334C30.5835 140.834 29.6835 142.934 30.0835 144.634C30.1835 145.434 30.7835 146.034 31.4835 146.234C32.9835 146.734 34.2835 145.834 35.3835 144.834C36.2835 144.034 34.3835 143.934 33.7835 144.434Z" fill="black"></path><path d="M135.083 86.5341C135.083 86.5341 146.183 82.4341 150.483 68.5341C154.783 54.6341 152.383 41.8341 160.983 34.4341C160.983 34.4341 163.883 37.0341 165.283 37.0341C165.283 37.0341 160.183 44.8341 160.583 60.9341C161.083 73.8341 156.583 86.3341 147.983 95.9341C147.883 96.0341 137.983 87.8341 135.083 86.5341Z" fill="black"></path><path d="M163.983 26.5342C164.283 29.0342 165.783 31.4342 168.583 30.4342C171.183 29.4342 171.683 26.0342 170.983 23.6342C168.883 16.2342 158.483 21.3342 157.883 27.1342C157.083 34.2342 163.083 39.7342 169.983 39.4342C173.183 39.3342 177.583 38.3342 179.583 35.5342C180.883 34.0342 180.783 31.8342 179.283 30.5342L179.183 30.4342C177.183 28.9342 172.483 29.2342 170.583 30.8342C169.783 31.5342 169.083 32.9342 169.883 33.9342C170.683 34.9342 172.183 34.5342 173.183 34.5342C174.183 34.5342 174.783 33.3342 173.383 33.3342C168.883 33.5342 174.383 30.0342 176.583 30.9342C177.183 31.1342 177.683 31.5342 177.983 32.0342C178.683 33.3342 178.383 35.0342 177.183 35.9342C173.083 39.8342 164.983 38.8342 161.883 34.3342C159.783 31.2342 158.583 26.1342 161.483 23.2342C164.683 19.9342 168.783 21.3342 169.183 25.3342C169.283 26.4342 169.283 29.6342 167.283 29.3342C166.183 29.1342 165.883 26.9342 165.783 26.0342C165.883 25.2342 163.883 25.7342 163.983 26.5342Z" fill="black"></path><path d="M179.984 31.9342C181.784 31.2342 183.284 28.5342 181.884 26.8342C180.784 25.5342 179.084 24.9342 177.384 25.0342C175.984 25.1342 174.184 25.6342 173.584 26.9342C173.084 27.9342 175.084 28.0342 175.484 27.1342C175.884 26.2342 177.184 26.4342 177.784 26.4342C178.884 26.4342 179.884 27.1342 180.384 28.1342C180.484 28.7342 180.284 29.4342 179.884 29.8342C179.684 30.1342 179.384 30.4342 179.084 30.6342C178.684 30.8342 178.384 31.2342 178.584 31.6342C178.884 32.2342 179.684 32.1342 179.984 31.9342Z" fill="black"></path><path d="M174.884 20.7338C175.684 18.4338 178.084 13.0338 181.184 14.0338C184.484 15.1338 182.284 17.7338 180.884 19.2338C178.984 21.1338 177.384 23.3338 176.284 25.7338C175.884 26.7338 177.884 26.6338 178.184 25.9338C179.684 22.4338 182.984 20.3338 184.684 17.1338C185.884 14.9338 184.084 13.1338 181.884 12.6338C177.384 11.7338 174.384 17.1338 173.084 20.6338C172.584 21.6338 174.584 21.5338 174.884 20.7338Z" fill="black"></path><path d="M181.784 7.83396C181.384 5.33396 183.084 2.33396 184.284 0.233956C184.484 -0.166044 182.184 -0.0660441 181.784 0.633956C180.484 2.83396 178.884 5.83396 179.284 8.43396C179.384 9.13396 181.884 8.53396 181.784 7.83396Z" fill="black"></path><path d="M188.083 11.3341C189.983 9.13407 192.583 7.53407 195.383 6.73407C196.983 6.33407 196.483 4.53407 194.883 4.93407C191.383 5.83407 188.283 7.83407 185.883 10.5341C184.883 11.7341 187.283 12.2341 188.083 11.3341Z" fill="black"></path><path d="M189.483 18.534C192.583 18.934 195.783 18.734 198.783 17.734C200.283 17.234 199.883 15.434 198.283 15.934C195.683 16.734 192.983 17.034 190.383 16.634C189.083 16.434 187.783 18.234 189.483 18.534Z" fill="black"></path><path d="M49.5833 188.534C54.6833 191.834 62.0833 191.434 67.7833 190.734C68.4833 190.634 70.4833 188.834 69.6833 188.934C64.2833 189.634 56.9833 190.034 52.0833 186.934C51.3833 186.434 49.3833 188.334 49.5833 188.534Z" fill="black"></path><path d="M87.0837 188.334C91.5837 191.834 99.3837 191.134 104.484 190.434C105.584 190.334 107.384 188.434 105.484 188.734C100.884 189.334 93.6837 190.134 89.6837 186.934C88.8837 186.334 86.2837 187.634 87.0837 188.334Z" fill="black"></path><path d="M55.7836 195.534C55.7836 195.534 50.0836 224.934 49.1836 229.734H50.7836L51.4836 227.234C54.5836 228.734 57.8836 229.534 61.2836 229.634C66.2836 229.634 57.3836 225.334 54.1836 224.634L64.3836 196.734C64.5836 196.734 60.5836 196.234 55.7836 195.534Z" fill="black"></path><path d="M95.5835 195.034C95.5835 195.034 92.9835 220.734 92.0835 225.534H93.6835L94.3835 223.034C97.4835 224.434 100.883 225.334 104.283 225.434C109.283 225.434 100.383 221.234 97.1835 220.434L103.283 196.034L95.5835 195.034Z" fill="black"></path><path d="M81.4836 29.5337C79.2836 27.8337 76.5836 26.8337 73.7836 26.6337C68.5836 26.5337 66.7836 30.4337 66.9836 35.0337C66.9836 35.6337 69.7836 35.1337 69.6836 34.3337C69.5836 32.5337 69.5836 29.8337 70.9836 28.4337C71.8836 27.5337 73.0836 27.9337 74.2836 28.2337C75.8836 28.7337 77.4836 29.5337 78.8836 30.4337C79.5836 31.0337 81.9836 29.9337 81.4836 29.5337Z" fill="black"></path><path d="M73.5835 42.6341C73.3835 40.6341 73.7835 38.0341 75.2835 36.6341C77.9835 34.1341 81.4835 39.1341 82.9835 41.1341C84.2835 42.9341 87.9835 48.3341 85.5835 50.6341C84.3835 51.7341 87.2836 51.6341 87.8836 51.0341C92.2836 46.7341 84.6835 37.5341 81.2835 35.3341C75.5835 31.7341 70.0835 37.6341 70.7835 43.4341C70.7835 44.2341 73.6835 43.6341 73.5835 42.6341Z" fill="black"></path><path d="M84.3834 40.1342C82.7834 39.4342 78.9834 39.9342 78.9834 44.8342C78.9834 49.0342 83.7834 53.6342 87.0834 51.8342C91.6834 49.2342 87.7834 41.6342 84.3834 40.1342Z" fill="black"></path><path d="M77.8833 45.0342L83.0833 45.4342L79.5833 49.0342L77.8833 45.0342Z" fill="white"></path><path d="M88.7833 28.3341C89.0833 27.2341 89.6833 26.1341 90.3833 25.2341C92.6833 22.6341 96.2833 27.4341 97.5833 29.0341C98.0833 29.6341 100.883 28.7341 100.283 28.0341C97.5833 24.7341 93.9833 21.5341 89.5833 23.8341C87.7833 24.9341 86.3833 26.7341 85.8833 28.7341C85.6833 29.5341 88.4833 29.2341 88.7833 28.3341Z" fill="black"></path><path d="M93.1835 38.4337C92.9835 37.4337 93.0835 36.3337 93.2835 35.3337C94.1835 32.0337 97.8835 34.2337 99.4835 35.8337C100.983 37.3337 101.983 39.3337 102.383 41.4337C102.483 42.0337 102.983 45.8337 102.083 46.1337C100.383 46.6337 100.783 48.2337 102.483 47.7337C108.783 45.7337 103.983 35.8337 100.483 33.4337C97.9835 31.7337 93.9835 30.7337 91.5835 33.2337C90.0835 34.7337 89.9835 37.2337 90.1835 39.2337C90.4835 40.2337 93.2835 39.6337 93.1835 38.4337Z" fill="black"></path><path d="M101.683 36.6339C100.283 36.0339 96.4833 36.5339 96.8833 40.7339C97.2833 44.5339 100.283 49.5339 103.683 47.3339C107.383 45.0339 103.683 37.5339 101.683 36.6339Z" fill="black"></path><path d="M95.8833 40.834L101.083 41.134L97.5833 44.734L95.8833 40.834Z" fill="white"></path><path d="M66.9834 53.7339C72.6834 50.7339 79.3834 50.1339 85.4834 52.3339C86.5834 52.7339 88.6834 51.1339 87.0834 50.5339C80.0834 48.1339 72.3834 48.7339 65.7834 52.2339C64.1834 53.0339 65.6834 54.4339 66.9834 53.7339Z" fill="black"></path><path d="M98.5835 54.0342C101.783 49.4342 105.583 50.6342 111.283 52.7342C118.283 55.3342 123.183 50.7342 124.683 46.5342C125.583 44.2342 125.883 43.2342 127.283 44.6342C129.083 46.4342 127.883 53.7342 126.483 56.6342C121.783 66.4342 104.283 67.7342 100.883 62.2342C97.4835 56.7342 97.3835 55.7342 98.5835 54.0342Z" fill="black"></path><path d="M98.5837 54.0341C98.5837 54.0341 90.8837 52.4341 86.8837 61.7341C86.2837 63.0341 83.2837 66.2341 81.0837 67.0341C77.6837 68.2341 73.3837 69.2341 69.1837 68.0341C67.2837 67.5341 65.1837 68.0341 65.6837 69.9341C66.0837 71.2341 66.8837 72.4341 68.0837 73.1341C80.1837 80.9341 100.984 73.4341 101.084 62.2341C101.084 55.7341 98.5837 54.0341 98.5837 54.0341Z" fill="black"></path></svg>