<svg xmlns="http://www.w3.org/2000/svg" xmlns:xlink="http://www.w3.org/1999/xlink" width="500" viewBox="0 0 375 374.999991" height="500" preserveAspectRatio="xMidYMid meet"><path fill="#ffffff" d="M 187.109375 7.296875 C 88.117188 7.296875 7.878906 87.539062 7.878906 186.527344 C 7.878906 285.519531 88.117188 365.757812 187.109375 365.757812 C 286.101562 365.757812 366.339844 285.558594 366.339844 186.527344 C 366.339844 87.496094 286.140625 7.296875 187.109375 7.296875 Z M 297.027344 272.5 C 290.707031 280.324219 283.617188 287.378906 275.757812 293.65625 C 267.898438 299.933594 259.453125 305.289062 250.425781 309.726562 C 248.375 310.726562 246.296875 311.679688 244.199219 312.578125 C 242.101562 313.476562 239.980469 314.320312 237.839844 315.113281 C 235.699219 315.90625 233.539062 316.644531 231.363281 317.332031 C 229.183594 318.015625 226.988281 318.644531 224.78125 319.222656 C 222.570312 319.796875 220.347656 320.316406 218.113281 320.78125 C 215.878906 321.246094 213.632812 321.652344 211.375 322.003906 C 209.121094 322.355469 206.859375 322.652344 204.585938 322.890625 C 202.316406 323.128906 200.042969 323.3125 197.761719 323.4375 C 195.480469 323.5625 193.199219 323.632812 190.917969 323.644531 C 188.636719 323.65625 186.351562 323.609375 184.070312 323.507812 C 181.792969 323.40625 179.515625 323.246094 177.242188 323.027344 C 174.96875 322.8125 172.703125 322.539062 170.445312 322.210938 C 168.183594 321.878906 165.933594 321.496094 163.695312 321.054688 C 161.457031 320.609375 159.226562 320.113281 157.011719 319.5625 C 154.796875 319.007812 152.597656 318.398438 150.414062 317.734375 C 148.226562 317.074219 146.0625 316.355469 143.914062 315.585938 C 141.761719 314.8125 139.636719 313.988281 137.527344 313.113281 C 135.421875 312.234375 133.335938 311.304688 131.273438 310.324219 C 129.214844 309.339844 127.175781 308.308594 125.167969 307.226562 C 123.160156 306.140625 121.175781 305.007812 119.222656 303.828125 C 117.269531 302.644531 115.347656 301.414062 113.457031 300.136719 C 111.566406 298.855469 109.707031 297.53125 107.882812 296.160156 C 106.054688 294.789062 104.265625 293.375 102.511719 291.914062 C 100.757812 290.453125 99.039062 288.949219 97.359375 287.402344 C 95.679688 285.855469 94.039062 284.269531 92.441406 282.640625 C 90.839844 281.011719 89.28125 279.34375 87.765625 277.636719 C 86.246094 275.929688 84.773438 274.1875 83.34375 272.410156 C 81.914062 270.628906 80.527344 268.8125 79.191406 266.964844 C 77.851562 265.117188 76.558594 263.234375 75.3125 261.320312 C 74.066406 259.40625 72.871094 257.464844 71.722656 255.492188 C 70.574219 253.519531 69.476562 251.515625 68.429688 249.488281 C 67.378906 247.460938 66.382812 245.40625 65.4375 243.328125 C 64.492188 241.25 63.597656 239.152344 62.757812 237.027344 C 61.917969 234.90625 61.128906 232.761719 60.394531 230.601562 C 59.660156 228.441406 58.980469 226.261719 58.355469 224.066406 C 57.730469 221.867188 57.164062 219.660156 56.648438 217.433594 C 56.132812 215.210938 55.675781 212.972656 55.273438 210.726562 C 54.871094 208.480469 54.523438 206.222656 54.234375 203.960938 C 53.941406 201.695312 53.710938 199.425781 53.53125 197.148438 C 53.355469 194.871094 53.234375 192.59375 53.171875 190.308594 C 53.109375 188.027344 53.105469 185.746094 53.15625 183.464844 C 53.207031 181.179688 53.316406 178.902344 53.480469 176.625 C 53.644531 174.347656 53.867188 172.074219 54.144531 169.808594 C 54.421875 167.542969 54.757812 165.285156 55.148438 163.035156 C 55.542969 160.785156 55.988281 158.546875 56.492188 156.320312 C 56.996094 154.09375 57.554688 151.882812 58.167969 149.683594 C 58.78125 147.484375 59.449219 145.300781 60.171875 143.136719 C 60.894531 140.96875 61.671875 138.824219 62.5 136.695312 C 63.328125 134.570312 64.210938 132.464844 65.148438 130.382812 C 66.082031 128.296875 67.070312 126.242188 68.105469 124.207031 C 69.144531 122.171875 70.234375 120.167969 71.371094 118.1875 C 72.507812 116.207031 73.695312 114.257812 74.929688 112.339844 C 76.167969 110.417969 77.449219 108.53125 78.777344 106.675781 C 80.109375 104.820312 81.484375 103 82.90625 101.210938 C 84.324219 99.425781 85.789062 97.671875 87.296875 95.960938 C 88.808594 94.246094 90.355469 92.570312 91.949219 90.933594 C 93.539062 89.296875 95.171875 87.699219 96.84375 86.144531 C 98.515625 84.589844 100.226562 83.078125 101.972656 81.609375 C 103.71875 80.140625 105.503906 78.714844 107.320312 77.332031 C 109.140625 75.953125 110.992188 74.617188 112.875 73.332031 C 114.761719 72.042969 116.675781 70.800781 118.625 69.609375 C 120.570312 68.417969 122.546875 67.273438 124.550781 66.179688 C 126.554688 65.085938 128.585938 64.042969 130.640625 63.050781 C 132.695312 62.058594 134.777344 61.121094 136.878906 60.230469 C 140.171875 58.84375 143.511719 57.585938 146.898438 56.457031 C 150.289062 55.332031 153.714844 54.335938 157.179688 53.476562 C 160.648438 52.617188 164.140625 51.894531 167.664062 51.308594 C 171.1875 50.71875 174.726562 50.273438 178.285156 49.960938 C 181.84375 49.652344 185.410156 49.480469 188.980469 49.449219 C 192.550781 49.417969 196.117188 49.523438 199.679688 49.769531 C 203.242188 50.015625 206.792969 50.402344 210.324219 50.925781 C 213.855469 51.449219 217.363281 52.109375 220.84375 52.910156 C 224.324219 53.707031 227.769531 54.636719 231.179688 55.707031 C 234.585938 56.773438 237.949219 57.96875 241.265625 59.300781 C 244.578125 60.628906 247.835938 62.085938 251.039062 63.667969 C 254.238281 65.253906 257.371094 66.957031 260.441406 68.785156 C 263.507812 70.617188 266.5 72.5625 269.417969 74.621094 C 272.332031 76.683594 275.164062 78.859375 277.910156 81.140625 C 280.65625 83.425781 283.308594 85.8125 285.867188 88.300781 C 288.425781 90.792969 290.886719 93.378906 293.246094 96.0625 C 293.839844 96.757812 294.402344 97.480469 294.925781 98.230469 C 295.453125 98.980469 295.941406 99.753906 296.390625 100.550781 C 296.839844 101.347656 297.25 102.167969 297.621094 103.003906 C 297.992188 103.84375 298.320312 104.695312 298.605469 105.566406 C 298.894531 106.433594 299.136719 107.316406 299.339844 108.210938 C 299.539062 109.105469 299.699219 110.003906 299.8125 110.914062 C 299.925781 111.824219 299.992188 112.734375 300.019531 113.652344 C 300.042969 114.566406 300.023438 115.480469 299.957031 116.394531 C 299.894531 117.308594 299.785156 118.214844 299.628906 119.121094 C 299.476562 120.023438 299.28125 120.914062 299.039062 121.800781 C 298.800781 122.683594 298.515625 123.554688 298.191406 124.410156 C 297.867188 125.265625 297.5 126.105469 297.09375 126.925781 C 296.6875 127.746094 296.242188 128.542969 295.757812 129.320312 C 295.273438 130.097656 294.75 130.851562 294.195312 131.578125 C 293.636719 132.304688 293.042969 133 292.417969 133.667969 C 291.792969 134.339844 291.132812 134.976562 290.445312 135.578125 C 289.757812 136.183594 289.042969 136.753906 288.300781 137.289062 C 287.554688 137.824219 286.789062 138.320312 285.996094 138.78125 C 285.203125 139.242188 284.390625 139.660156 283.558594 140.042969 C 282.726562 140.421875 281.875 140.761719 281.011719 141.0625 C 280.144531 141.359375 279.265625 141.613281 278.375 141.828125 C 277.484375 142.039062 276.585938 142.207031 275.675781 142.332031 C 274.769531 142.457031 273.859375 142.539062 272.945312 142.574219 C 272.027344 142.609375 271.113281 142.601562 270.199219 142.546875 C 269.285156 142.496094 268.375 142.398438 267.46875 142.253906 C 266.566406 142.113281 265.667969 141.929688 264.78125 141.699219 C 263.894531 141.46875 263.023438 141.199219 262.164062 140.882812 C 261.300781 140.570312 260.457031 140.214844 259.632812 139.816406 C 258.808594 139.421875 258.003906 138.984375 257.21875 138.511719 C 256.4375 138.035156 255.679688 137.523438 254.945312 136.976562 C 254.210938 136.425781 253.507812 135.84375 252.832031 135.226562 C 252.152344 134.609375 251.507812 133.960938 250.894531 133.277344 C 249.992188 132.25 249.0625 131.246094 248.109375 130.265625 C 247.152344 129.28125 246.175781 128.324219 245.171875 127.394531 C 244.167969 126.460938 243.140625 125.558594 242.09375 124.675781 C 241.042969 123.796875 239.972656 122.945312 238.878906 122.121094 C 237.785156 121.296875 236.671875 120.5 235.539062 119.730469 C 234.40625 118.964844 233.253906 118.222656 232.082031 117.515625 C 230.914062 116.804688 229.726562 116.125 228.519531 115.476562 C 227.3125 114.828125 226.09375 114.210938 224.855469 113.621094 C 223.617188 113.035156 222.367188 112.480469 221.101562 111.957031 C 219.835938 111.433594 218.558594 110.945312 217.269531 110.484375 C 215.980469 110.027344 214.679688 109.601562 213.367188 109.210938 C 212.054688 108.816406 210.734375 108.460938 209.402344 108.136719 C 208.074219 107.808594 206.734375 107.519531 205.390625 107.261719 C 204.046875 107.007812 202.695312 106.785156 201.339844 106.59375 C 199.984375 106.40625 198.621094 106.253906 197.257812 106.136719 C 195.894531 106.015625 194.527344 105.933594 193.160156 105.882812 C 191.792969 105.835938 190.421875 105.820312 189.054688 105.839844 C 187.6875 105.859375 186.316406 105.914062 184.953125 106.007812 C 183.585938 106.097656 182.222656 106.222656 180.863281 106.378906 C 179.503906 106.539062 178.148438 106.734375 176.796875 106.960938 C 175.449219 107.191406 174.105469 107.453125 172.769531 107.75 C 171.429688 108.046875 170.101562 108.375 168.785156 108.742188 C 167.464844 109.105469 166.152344 109.503906 164.855469 109.933594 C 163.554688 110.363281 162.265625 110.828125 160.992188 111.324219 C 159.714844 111.820312 158.453125 112.351562 157.203125 112.910156 C 155.953125 113.472656 154.722656 114.066406 153.503906 114.6875 C 152.28125 115.3125 151.082031 115.964844 149.894531 116.652344 C 148.710938 117.335938 147.542969 118.050781 146.394531 118.792969 C 145.242188 119.539062 144.113281 120.3125 143.003906 121.113281 C 141.894531 121.914062 140.804688 122.742188 139.738281 123.601562 C 138.671875 124.457031 137.625 125.34375 136.601562 126.253906 C 135.578125 127.164062 134.582031 128.097656 133.605469 129.058594 C 132.628906 130.019531 131.679688 131.007812 130.753906 132.015625 C 129.832031 133.023438 128.933594 134.058594 128.058594 135.113281 C 127.1875 136.167969 126.34375 137.246094 125.523438 138.34375 C 124.707031 139.441406 123.917969 140.558594 123.15625 141.699219 C 122.398438 142.835938 121.664062 143.992188 120.964844 145.167969 C 120.261719 146.34375 119.589844 147.539062 118.949219 148.746094 C 118.308594 149.957031 117.699219 151.183594 117.121094 152.421875 C 116.542969 153.664062 115.996094 154.917969 115.480469 156.1875 C 114.964844 157.457031 114.484375 158.738281 114.03125 160.03125 C 113.582031 161.324219 113.167969 162.628906 112.785156 163.941406 C 112.398438 165.253906 112.050781 166.578125 111.734375 167.910156 C 111.417969 169.242188 111.136719 170.582031 110.890625 171.929688 C 110.640625 173.277344 110.429688 174.628906 110.25 175.984375 C 110.070312 177.34375 109.925781 178.703125 109.816406 180.070312 C 109.707031 181.433594 109.632812 182.800781 109.589844 184.167969 C 109.550781 185.539062 109.546875 186.90625 109.574219 188.273438 C 109.605469 189.644531 109.667969 191.011719 109.769531 192.375 C 109.867188 193.742188 110 195.105469 110.167969 196.460938 C 110.339844 197.820312 110.539062 199.175781 110.777344 200.523438 C 111.015625 201.871094 111.289062 203.214844 111.59375 204.546875 C 111.898438 205.882812 112.238281 207.207031 112.609375 208.527344 C 112.984375 209.84375 113.390625 211.148438 113.828125 212.445312 C 114.269531 213.742188 114.742188 215.027344 115.246094 216.300781 C 115.75 217.574219 116.289062 218.832031 116.859375 220.078125 C 117.425781 221.324219 118.027344 222.554688 118.660156 223.769531 C 119.289062 224.984375 119.953125 226.179688 120.644531 227.359375 C 121.339844 228.542969 122.0625 229.703125 122.8125 230.847656 C 123.5625 231.992188 124.34375 233.117188 125.152344 234.222656 C 125.960938 235.328125 126.800781 236.410156 127.664062 237.472656 C 128.527344 238.535156 129.417969 239.574219 130.335938 240.589844 C 131.253906 241.605469 132.195312 242.597656 133.164062 243.566406 C 134.128906 244.535156 135.121094 245.480469 136.136719 246.398438 C 137.152344 247.316406 138.191406 248.207031 139.253906 249.074219 C 140.3125 249.9375 141.394531 250.777344 142.5 251.585938 C 143.601562 252.398438 144.726562 253.179688 145.871094 253.933594 C 147.011719 254.683594 148.175781 255.410156 149.355469 256.101562 C 150.535156 256.796875 151.734375 257.460938 152.945312 258.09375 C 154.160156 258.726562 155.390625 259.328125 156.636719 259.898438 C 157.878906 260.46875 159.136719 261.007812 160.410156 261.511719 C 161.683594 262.019531 162.964844 262.492188 164.261719 262.933594 C 165.558594 263.375 166.863281 263.785156 168.183594 264.15625 C 169.5 264.53125 170.824219 264.875 172.160156 265.179688 C 173.492188 265.488281 174.835938 265.761719 176.183594 266 C 177.53125 266.238281 178.882812 266.441406 180.242188 266.613281 C 181.601562 266.78125 182.964844 266.917969 184.328125 267.019531 C 185.695312 267.117188 187.0625 267.183594 188.429688 267.214844 C 189.796875 267.246094 191.167969 267.242188 192.535156 267.203125 C 193.90625 267.164062 195.269531 267.09375 196.636719 266.984375 C 198 266.875 199.363281 266.734375 200.71875 266.554688 C 202.078125 266.378906 203.429688 266.167969 204.777344 265.921875 C 206.125 265.671875 207.464844 265.394531 208.796875 265.078125 C 210.128906 264.765625 211.453125 264.417969 212.765625 264.035156 C 214.082031 263.652344 215.386719 263.238281 216.679688 262.789062 C 217.972656 262.339844 219.253906 261.859375 220.523438 261.347656 C 221.792969 260.832031 223.046875 260.289062 224.289062 259.710938 C 225.53125 259.132812 226.757812 258.523438 227.96875 257.886719 C 229.179688 257.246094 230.371094 256.574219 231.546875 255.875 C 232.722656 255.175781 233.882812 254.445312 235.023438 253.683594 C 236.160156 252.925781 237.28125 252.136719 238.378906 251.320312 C 239.476562 250.503906 240.554688 249.660156 241.613281 248.789062 C 242.667969 247.917969 243.703125 247.019531 244.710938 246.097656 C 245.722656 245.171875 246.710938 244.222656 247.671875 243.25 C 248.632812 242.277344 249.570312 241.277344 250.480469 240.257812 C 251.394531 239.234375 252.277344 238.191406 253.136719 237.125 C 253.714844 236.40625 254.328125 235.714844 254.976562 235.054688 C 255.621094 234.398438 256.300781 233.769531 257.007812 233.179688 C 257.714844 232.585938 258.453125 232.03125 259.214844 231.507812 C 259.976562 230.988281 260.765625 230.507812 261.574219 230.0625 C 262.386719 229.621094 263.214844 229.21875 264.066406 228.859375 C 264.914062 228.496094 265.78125 228.175781 266.664062 227.902344 C 267.542969 227.625 268.4375 227.394531 269.339844 227.203125 C 270.246094 227.015625 271.15625 226.871094 272.074219 226.773438 C 272.992188 226.675781 273.914062 226.621094 274.835938 226.613281 C 275.757812 226.601562 276.679688 226.640625 277.601562 226.722656 C 278.519531 226.804688 279.433594 226.933594 280.34375 227.105469 C 281.25 227.277344 282.144531 227.492188 283.03125 227.75 C 283.917969 228.011719 284.789062 228.316406 285.644531 228.660156 C 286.503906 229.007812 287.339844 229.394531 288.160156 229.820312 C 288.976562 230.25 289.773438 230.714844 290.542969 231.222656 C 291.316406 231.730469 292.0625 232.273438 292.78125 232.851562 C 293.5 233.429688 294.191406 234.042969 294.847656 234.691406 C 295.507812 235.339844 296.132812 236.015625 296.722656 236.726562 C 297.316406 237.433594 297.871094 238.171875 298.390625 238.933594 C 298.910156 239.695312 299.394531 240.484375 299.835938 241.296875 C 300.277344 242.105469 300.679688 242.9375 301.039062 243.785156 C 301.402344 244.636719 301.71875 245.503906 301.996094 246.382812 C 302.269531 247.265625 302.503906 248.15625 302.691406 249.0625 C 302.878906 249.964844 303.019531 250.878906 303.121094 251.796875 C 303.21875 252.714844 303.269531 253.636719 303.277344 254.558594 C 303.285156 255.480469 303.25 256.402344 303.167969 257.324219 C 303.082031 258.242188 302.957031 259.15625 302.785156 260.0625 C 302.609375 260.972656 302.394531 261.867188 302.132812 262.753906 C 301.871094 263.640625 301.570312 264.511719 301.222656 265.367188 C 300.875 266.222656 300.488281 267.058594 300.058594 267.878906 C 299.632812 268.695312 299.164062 269.492188 298.65625 270.261719 C 298.148438 271.035156 297.605469 271.78125 297.027344 272.5 Z M 222.527344 186.527344 C 222.527344 187.578125 222.472656 188.628906 222.371094 189.671875 C 222.269531 190.71875 222.113281 191.757812 221.910156 192.789062 C 221.703125 193.816406 221.449219 194.835938 221.144531 195.839844 C 220.839844 196.847656 220.484375 197.835938 220.082031 198.804688 C 219.683594 199.777344 219.234375 200.722656 218.738281 201.652344 C 218.242188 202.578125 217.703125 203.476562 217.121094 204.351562 C 216.535156 205.226562 215.910156 206.066406 215.242188 206.878906 C 214.578125 207.691406 213.871094 208.46875 213.128906 209.210938 C 212.386719 209.957031 211.609375 210.660156 210.796875 211.328125 C 209.984375 211.992188 209.140625 212.617188 208.269531 213.203125 C 207.394531 213.785156 206.496094 214.324219 205.570312 214.820312 C 204.640625 215.316406 203.691406 215.765625 202.722656 216.167969 C 201.75 216.570312 200.765625 216.921875 199.757812 217.226562 C 198.753906 217.53125 197.734375 217.789062 196.703125 217.992188 C 195.675781 218.195312 194.636719 218.351562 193.589844 218.453125 C 192.542969 218.558594 191.496094 218.609375 190.445312 218.609375 C 189.394531 218.609375 188.347656 218.558594 187.300781 218.453125 C 186.257812 218.351562 185.21875 218.195312 184.1875 217.992188 C 183.15625 217.789062 182.140625 217.53125 181.132812 217.226562 C 180.128906 216.921875 179.140625 216.570312 178.167969 216.167969 C 177.199219 215.765625 176.25 215.316406 175.324219 214.820312 C 174.398438 214.324219 173.496094 213.785156 172.625 213.203125 C 171.75 212.617188 170.90625 211.992188 170.09375 211.328125 C 169.28125 210.660156 168.503906 209.957031 167.761719 209.210938 C 167.019531 208.46875 166.316406 207.691406 165.648438 206.878906 C 164.980469 206.066406 164.355469 205.226562 163.773438 204.351562 C 163.1875 203.476562 162.648438 202.578125 162.15625 201.652344 C 161.660156 200.722656 161.210938 199.777344 160.808594 198.804688 C 160.40625 197.835938 160.050781 196.847656 159.746094 195.839844 C 159.441406 194.835938 159.1875 193.816406 158.984375 192.789062 C 158.777344 191.757812 158.625 190.71875 158.519531 189.671875 C 158.417969 188.628906 158.367188 187.578125 158.367188 186.527344 C 158.367188 185.476562 158.417969 184.429688 158.519531 183.382812 C 158.625 182.339844 158.777344 181.300781 158.984375 180.269531 C 159.1875 179.238281 159.441406 178.222656 159.746094 177.214844 C 160.050781 176.210938 160.40625 175.222656 160.808594 174.253906 C 161.210938 173.28125 161.660156 172.332031 162.15625 171.40625 C 162.648438 170.480469 163.1875 169.578125 163.773438 168.707031 C 164.355469 167.832031 164.980469 166.988281 165.648438 166.175781 C 166.316406 165.367188 167.019531 164.585938 167.761719 163.84375 C 168.503906 163.101562 169.28125 162.398438 170.09375 161.730469 C 170.90625 161.0625 171.75 160.4375 172.625 159.855469 C 173.496094 159.273438 174.398438 158.730469 175.324219 158.238281 C 176.25 157.742188 177.199219 157.292969 178.167969 156.890625 C 179.140625 156.488281 180.128906 156.136719 181.132812 155.832031 C 182.140625 155.523438 183.15625 155.269531 184.1875 155.066406 C 185.21875 154.859375 186.257812 154.707031 187.300781 154.601562 C 188.347656 154.5 189.394531 154.449219 190.445312 154.449219 C 191.496094 154.449219 192.542969 154.5 193.589844 154.601562 C 194.636719 154.707031 195.675781 154.859375 196.703125 155.066406 C 197.734375 155.269531 198.753906 155.523438 199.757812 155.832031 C 200.765625 156.136719 201.75 156.488281 202.722656 156.890625 C 203.691406 157.292969 204.640625 157.742188 205.570312 158.238281 C 206.496094 158.730469 207.394531 159.273438 208.269531 159.855469 C 209.140625 160.4375 209.984375 161.0625 210.796875 161.730469 C 211.609375 162.398438 212.386719 163.101562 213.128906 163.84375 C 213.871094 164.585938 214.578125 165.367188 215.242188 166.175781 C 215.910156 166.988281 216.535156 167.832031 217.121094 168.707031 C 217.703125 169.578125 218.242188 170.480469 218.738281 171.40625 C 219.234375 172.332031 219.683594 173.28125 220.082031 174.253906 C 220.484375 175.222656 220.839844 176.210938 221.144531 177.214844 C 221.449219 178.222656 221.703125 179.238281 221.910156 180.269531 C 222.113281 181.300781 222.269531 182.339844 222.371094 183.382812 C 222.472656 184.429688 222.527344 185.476562 222.527344 186.527344 Z M 222.527344 186.527344 " fill-opacity="1" fill-rule="nonzero"></path></svg>