<svg xmlns="http://www.w3.org/2000/svg" xmlns:xlink="http://www.w3.org/1999/xlink" width="834" viewBox="0 0 625.5 116.999995" height="156" preserveAspectRatio="xMidYMid meet"><defs><g></g><clipPath id="cf39c146f2"><path d="M 12 2.289062 L 126 2.289062 L 126 116 L 12 116 Z M 12 2.289062 " clip-rule="nonzero"></path></clipPath></defs><g fill="#ffffff" fill-opacity="1"><g transform="translate(132.824758, 76.419665)"><g><path d="M 22.5625 0.734375 C 18.820312 0.734375 15.507812 -0.0390625 12.625 -1.59375 C 9.75 -3.15625 7.503906 -5.441406 5.890625 -8.453125 C 4.273438 -11.472656 3.46875 -15.101562 3.46875 -19.34375 C 3.46875 -23.59375 4.273438 -27.226562 5.890625 -30.25 C 7.503906 -33.269531 9.738281 -35.554688 12.59375 -37.109375 C 15.445312 -38.671875 18.710938 -39.453125 22.390625 -39.453125 C 30.554688 -39.453125 35.785156 -36.488281 38.078125 -30.5625 L 31.40625 -25.796875 L 30.671875 -25.796875 C 29.878906 -27.617188 28.84375 -28.972656 27.5625 -29.859375 C 26.289062 -30.753906 24.566406 -31.203125 22.390625 -31.203125 C 19.578125 -31.203125 17.390625 -30.226562 15.828125 -28.28125 C 14.265625 -26.34375 13.484375 -23.363281 13.484375 -19.34375 C 13.484375 -15.363281 14.273438 -12.394531 15.859375 -10.4375 C 17.453125 -8.488281 19.6875 -7.515625 22.5625 -7.515625 C 24.664062 -7.515625 26.445312 -8.082031 27.90625 -9.21875 C 29.375 -10.351562 30.425781 -11.984375 31.0625 -14.109375 L 31.796875 -14.171875 L 38.703125 -10.390625 C 37.722656 -7.109375 35.90625 -4.429688 33.25 -2.359375 C 30.59375 -0.296875 27.03125 0.734375 22.5625 0.734375 Z M 22.5625 0.734375 "></path></g></g><g transform="translate(172.724802, 76.419665)"><g><path d="M 22.5 0.734375 C 18.707031 0.734375 15.378906 -0.0390625 12.515625 -1.59375 C 9.648438 -3.15625 7.425781 -5.4375 5.84375 -8.4375 C 4.257812 -11.445312 3.46875 -15.082031 3.46875 -19.34375 C 3.46875 -23.59375 4.257812 -27.226562 5.84375 -30.25 C 7.425781 -33.269531 9.648438 -35.554688 12.515625 -37.109375 C 15.378906 -38.671875 18.707031 -39.453125 22.5 -39.453125 C 26.289062 -39.453125 29.617188 -38.671875 32.484375 -37.109375 C 35.347656 -35.554688 37.570312 -33.269531 39.15625 -30.25 C 40.75 -27.226562 41.546875 -23.59375 41.546875 -19.34375 C 41.546875 -15.082031 40.75 -11.445312 39.15625 -8.4375 C 37.570312 -5.4375 35.347656 -3.15625 32.484375 -1.59375 C 29.617188 -0.0390625 26.289062 0.734375 22.5 0.734375 Z M 22.5 -7.515625 C 28.507812 -7.515625 31.515625 -11.457031 31.515625 -19.34375 C 31.515625 -23.4375 30.742188 -26.4375 29.203125 -28.34375 C 27.660156 -30.25 25.425781 -31.203125 22.5 -31.203125 C 16.488281 -31.203125 13.484375 -27.25 13.484375 -19.34375 C 13.484375 -11.457031 16.488281 -7.515625 22.5 -7.515625 Z M 22.5 -7.515625 "></path></g></g><g transform="translate(217.713243, 76.419665)"><g><path d="M 19.125 0.734375 C 16.0625 0.734375 13.351562 -0.00390625 11 -1.484375 C 8.644531 -2.972656 6.800781 -5.21875 5.46875 -8.21875 C 4.132812 -11.226562 3.46875 -14.9375 3.46875 -19.34375 C 3.46875 -23.757812 4.148438 -27.46875 5.515625 -30.46875 C 6.890625 -33.476562 8.785156 -35.726562 11.203125 -37.21875 C 13.628906 -38.707031 16.4375 -39.453125 19.625 -39.453125 C 22.03125 -39.453125 24.113281 -39.035156 25.875 -38.203125 C 27.644531 -37.367188 29.140625 -36.078125 30.359375 -34.328125 L 31.09375 -34.5 L 31.09375 -54.25 L 40.8125 -54.25 L 40.8125 0 L 31.09375 0 L 31.09375 -5.015625 L 30.359375 -5.15625 C 29.285156 -3.332031 27.8125 -1.894531 25.9375 -0.84375 C 24.0625 0.207031 21.789062 0.734375 19.125 0.734375 Z M 22.28125 -7.515625 C 25.019531 -7.515625 27.1875 -8.488281 28.78125 -10.4375 C 30.375 -12.394531 31.171875 -15.363281 31.171875 -19.34375 C 31.171875 -23.3125 30.375 -26.28125 28.78125 -28.25 C 27.1875 -30.21875 25.019531 -31.203125 22.28125 -31.203125 C 19.425781 -31.203125 17.242188 -30.25 15.734375 -28.34375 C 14.234375 -26.4375 13.484375 -23.4375 13.484375 -19.34375 C 13.484375 -15.269531 14.234375 -12.28125 15.734375 -10.375 C 17.242188 -8.46875 19.425781 -7.515625 22.28125 -7.515625 Z M 22.28125 -7.515625 "></path></g></g><g transform="translate(264.105379, 76.419665)"><g><path d="M 38.25 -17.15625 L 13.375 -17.15625 C 13.65625 -13.789062 14.613281 -11.34375 16.25 -9.8125 C 17.882812 -8.28125 20.117188 -7.515625 22.953125 -7.515625 C 25.171875 -7.515625 26.96875 -7.925781 28.34375 -8.75 C 29.726562 -9.582031 30.84375 -10.84375 31.6875 -12.53125 L 32.421875 -12.53125 L 38.890625 -8.390625 C 37.617188 -5.671875 35.707031 -3.46875 33.15625 -1.78125 C 30.613281 -0.101562 27.210938 0.734375 22.953125 0.734375 C 18.953125 0.734375 15.492188 -0.0234375 12.578125 -1.546875 C 9.671875 -3.066406 7.425781 -5.328125 5.84375 -8.328125 C 4.257812 -11.335938 3.46875 -15.007812 3.46875 -19.34375 C 3.46875 -23.738281 4.296875 -27.441406 5.953125 -30.453125 C 7.617188 -33.472656 9.867188 -35.726562 12.703125 -37.21875 C 15.535156 -38.707031 18.71875 -39.453125 22.25 -39.453125 C 27.726562 -39.453125 31.921875 -38 34.828125 -35.09375 C 37.742188 -32.195312 39.203125 -27.941406 39.203125 -22.328125 C 39.203125 -20.285156 39.128906 -18.703125 38.984375 -17.578125 Z M 29.90625 -23.4375 C 29.8125 -26.382812 29.125 -28.53125 27.84375 -29.875 C 26.570312 -31.226562 24.707031 -31.90625 22.25 -31.90625 C 17.332031 -31.90625 14.441406 -29.082031 13.578125 -23.4375 Z M 29.90625 -23.4375 "></path></g></g><g transform="translate(306.181151, 76.419665)"><g><path d="M 19.125 0.734375 C 16.0625 0.734375 13.351562 -0.00390625 11 -1.484375 C 8.644531 -2.972656 6.800781 -5.21875 5.46875 -8.21875 C 4.132812 -11.226562 3.46875 -14.9375 3.46875 -19.34375 C 3.46875 -23.757812 4.148438 -27.46875 5.515625 -30.46875 C 6.890625 -33.476562 8.785156 -35.726562 11.203125 -37.21875 C 13.628906 -38.707031 16.4375 -39.453125 19.625 -39.453125 C 22.03125 -39.453125 24.113281 -39.035156 25.875 -38.203125 C 27.644531 -37.367188 29.140625 -36.078125 30.359375 -34.328125 L 31.09375 -34.5 L 31.09375 -54.25 L 40.8125 -54.25 L 40.8125 0 L 31.09375 0 L 31.09375 -5.015625 L 30.359375 -5.15625 C 29.285156 -3.332031 27.8125 -1.894531 25.9375 -0.84375 C 24.0625 0.207031 21.789062 0.734375 19.125 0.734375 Z M 22.28125 -7.515625 C 25.019531 -7.515625 27.1875 -8.488281 28.78125 -10.4375 C 30.375 -12.394531 31.171875 -15.363281 31.171875 -19.34375 C 31.171875 -23.3125 30.375 -26.28125 28.78125 -28.25 C 27.1875 -30.21875 25.019531 -31.203125 22.28125 -31.203125 C 19.425781 -31.203125 17.242188 -30.25 15.734375 -28.34375 C 14.234375 -26.4375 13.484375 -23.4375 13.484375 -19.34375 C 13.484375 -15.269531 14.234375 -12.28125 15.734375 -10.375 C 17.242188 -8.46875 19.425781 -7.515625 22.28125 -7.515625 Z M 22.28125 -7.515625 "></path></g></g><g transform="translate(352.573287, 76.419665)"><g><path d="M 9.890625 0.3125 C 8.648438 0.3125 7.554688 0.0625 6.609375 -0.4375 C 5.660156 -0.9375 4.9375 -1.628906 4.4375 -2.515625 C 3.9375 -3.410156 3.6875 -4.421875 3.6875 -5.546875 C 3.6875 -6.671875 3.9375 -7.675781 4.4375 -8.5625 C 4.9375 -9.445312 5.660156 -10.144531 6.609375 -10.65625 C 7.554688 -11.175781 8.648438 -11.4375 9.890625 -11.4375 C 11.160156 -11.4375 12.269531 -11.1875 13.21875 -10.6875 C 14.164062 -10.1875 14.890625 -9.488281 15.390625 -8.59375 C 15.890625 -7.707031 16.140625 -6.703125 16.140625 -5.578125 C 16.140625 -3.867188 15.570312 -2.457031 14.4375 -1.34375 C 13.300781 -0.238281 11.785156 0.3125 9.890625 0.3125 Z M 9.890625 0.3125 "></path></g></g><g transform="translate(372.400486, 76.419665)"><g><path d="M 5.578125 0 L 5.578125 -38.703125 L 14.921875 -38.703125 L 14.921875 -33.515625 L 15.65625 -33.375 C 16.914062 -35.457031 18.394531 -36.988281 20.09375 -37.96875 C 21.789062 -38.957031 23.960938 -39.453125 26.609375 -39.453125 C 29.523438 -39.453125 31.875 -38.867188 33.65625 -37.703125 C 35.4375 -36.546875 36.734375 -34.859375 37.546875 -32.640625 L 38.28125 -32.640625 C 39.476562 -34.953125 41.019531 -36.664062 42.90625 -37.78125 C 44.789062 -38.894531 47.132812 -39.453125 49.9375 -39.453125 C 57.96875 -39.453125 61.984375 -34.984375 61.984375 -26.046875 L 61.984375 0 L 52.25 0 L 52.25 -24.8125 C 52.25 -27.082031 51.804688 -28.71875 50.921875 -29.71875 C 50.035156 -30.726562 48.609375 -31.234375 46.640625 -31.234375 C 41.304688 -31.234375 38.640625 -27.664062 38.640625 -20.53125 L 38.640625 0 L 28.921875 0 L 28.921875 -24.8125 C 28.921875 -27.082031 28.46875 -28.71875 27.5625 -29.71875 C 26.664062 -30.726562 25.234375 -31.234375 23.265625 -31.234375 C 20.765625 -31.234375 18.8125 -30.394531 17.40625 -28.71875 C 16 -27.050781 15.296875 -24.390625 15.296875 -20.734375 L 15.296875 0 Z M 5.578125 0 "></path></g></g><g transform="translate(439.356762, 76.419665)"><g><path d="M 22.5 0.734375 C 18.707031 0.734375 15.378906 -0.0390625 12.515625 -1.59375 C 9.648438 -3.15625 7.425781 -5.4375 5.84375 -8.4375 C 4.257812 -11.445312 3.46875 -15.082031 3.46875 -19.34375 C 3.46875 -23.59375 4.257812 -27.226562 5.84375 -30.25 C 7.425781 -33.269531 9.648438 -35.554688 12.515625 -37.109375 C 15.378906 -38.671875 18.707031 -39.453125 22.5 -39.453125 C 26.289062 -39.453125 29.617188 -38.671875 32.484375 -37.109375 C 35.347656 -35.554688 37.570312 -33.269531 39.15625 -30.25 C 40.75 -27.226562 41.546875 -23.59375 41.546875 -19.34375 C 41.546875 -15.082031 40.75 -11.445312 39.15625 -8.4375 C 37.570312 -5.4375 35.347656 -3.15625 32.484375 -1.59375 C 29.617188 -0.0390625 26.289062 0.734375 22.5 0.734375 Z M 22.5 -7.515625 C 28.507812 -7.515625 31.515625 -11.457031 31.515625 -19.34375 C 31.515625 -23.4375 30.742188 -26.4375 29.203125 -28.34375 C 27.660156 -30.25 25.425781 -31.203125 22.5 -31.203125 C 16.488281 -31.203125 13.484375 -27.25 13.484375 -19.34375 C 13.484375 -11.457031 16.488281 -7.515625 22.5 -7.515625 Z M 22.5 -7.515625 "></path></g></g><g transform="translate(484.345202, 76.419665)"><g><path d="M 5.578125 0 L 5.578125 -38.703125 L 14.921875 -38.703125 L 14.921875 -33.03125 L 15.65625 -32.84375 C 18.0625 -37.25 21.96875 -39.453125 27.375 -39.453125 C 31.84375 -39.453125 35.125 -38.234375 37.21875 -35.796875 C 39.3125 -33.359375 40.359375 -29.8125 40.359375 -25.15625 L 40.359375 0 L 30.640625 0 L 30.640625 -23.96875 C 30.640625 -26.539062 30.125 -28.394531 29.09375 -29.53125 C 28.0625 -30.664062 26.410156 -31.234375 24.140625 -31.234375 C 21.359375 -31.234375 19.1875 -30.332031 17.625 -28.53125 C 16.070312 -26.726562 15.296875 -23.898438 15.296875 -20.046875 L 15.296875 0 Z M 5.578125 0 "></path></g></g><g transform="translate(529.684567, 76.419665)"><g><path d="M 38.25 -17.15625 L 13.375 -17.15625 C 13.65625 -13.789062 14.613281 -11.34375 16.25 -9.8125 C 17.882812 -8.28125 20.117188 -7.515625 22.953125 -7.515625 C 25.171875 -7.515625 26.96875 -7.925781 28.34375 -8.75 C 29.726562 -9.582031 30.84375 -10.84375 31.6875 -12.53125 L 32.421875 -12.53125 L 38.890625 -8.390625 C 37.617188 -5.671875 35.707031 -3.46875 33.15625 -1.78125 C 30.613281 -0.101562 27.210938 0.734375 22.953125 0.734375 C 18.953125 0.734375 15.492188 -0.0234375 12.578125 -1.546875 C 9.671875 -3.066406 7.425781 -5.328125 5.84375 -8.328125 C 4.257812 -11.335938 3.46875 -15.007812 3.46875 -19.34375 C 3.46875 -23.738281 4.296875 -27.441406 5.953125 -30.453125 C 7.617188 -33.472656 9.867188 -35.726562 12.703125 -37.21875 C 15.535156 -38.707031 18.71875 -39.453125 22.25 -39.453125 C 27.726562 -39.453125 31.921875 -38 34.828125 -35.09375 C 37.742188 -32.195312 39.203125 -27.941406 39.203125 -22.328125 C 39.203125 -20.285156 39.128906 -18.703125 38.984375 -17.578125 Z M 29.90625 -23.4375 C 29.8125 -26.382812 29.125 -28.53125 27.84375 -29.875 C 26.570312 -31.226562 24.707031 -31.90625 22.25 -31.90625 C 17.332031 -31.90625 14.441406 -29.082031 13.578125 -23.4375 Z M 29.90625 -23.4375 "></path></g></g><g transform="translate(571.76034, 76.419665)"><g><path d="M 8.5625 16.421875 C 6.90625 16.421875 5.398438 16.289062 4.046875 16.03125 C 2.703125 15.78125 1.609375 15.441406 0.765625 15.015625 L 2.3125 7.15625 L 2.953125 6.953125 C 3.535156 7.253906 4.257812 7.5 5.125 7.6875 C 5.988281 7.875 6.878906 7.96875 7.796875 7.96875 C 9.359375 7.96875 10.660156 7.757812 11.703125 7.34375 C 12.742188 6.9375 13.625 6.257812 14.34375 5.3125 C 15.070312 4.363281 15.71875 3.050781 16.28125 1.375 L 0.84375 -38.703125 L 11.015625 -38.703125 L 20.640625 -11.796875 L 21.484375 -11.796875 L 30.84375 -38.703125 L 40.75 -38.703125 L 25.203125 2.421875 C 23.960938 5.742188 22.597656 8.414062 21.109375 10.4375 C 19.617188 12.46875 17.863281 13.972656 15.84375 14.953125 C 13.820312 15.929688 11.394531 16.421875 8.5625 16.421875 Z M 8.5625 16.421875 "></path></g></g></g><g clip-path="url(#cf39c146f2)"><path fill="#ffffff" d="M 68.722656 2.601562 C 37.605469 2.601562 12.382812 27.828125 12.382812 58.945312 C 12.382812 90.0625 37.605469 115.285156 68.722656 115.285156 C 99.839844 115.285156 125.0625 90.074219 125.0625 58.945312 C 125.0625 27.8125 99.855469 2.601562 68.722656 2.601562 Z M 103.273438 85.96875 C 99.253906 90.949219 94.371094 94.851562 88.625 97.671875 C 87.335938 98.300781 86.015625 98.867188 84.671875 99.367188 C 83.324219 99.863281 81.953125 100.292969 80.566406 100.65625 C 79.175781 101.019531 77.769531 101.308594 76.351562 101.53125 C 74.933594 101.753906 73.503906 101.902344 72.070312 101.980469 C 70.636719 102.0625 69.203125 102.070312 67.769531 102.003906 C 66.332031 101.9375 64.90625 101.804688 63.484375 101.597656 C 62.0625 101.390625 60.65625 101.109375 59.261719 100.761719 C 57.867188 100.414062 56.496094 100 55.144531 99.511719 C 53.792969 99.027344 52.46875 98.476562 51.171875 97.859375 C 49.875 97.242188 48.609375 96.5625 47.382812 95.816406 C 46.152344 95.074219 44.964844 94.269531 43.816406 93.40625 C 42.667969 92.542969 41.566406 91.628906 40.507812 90.652344 C 39.453125 89.679688 38.449219 88.65625 37.492188 87.585938 C 36.539062 86.511719 35.640625 85.394531 34.796875 84.230469 C 33.957031 83.066406 33.171875 81.863281 32.449219 80.621094 C 31.726562 79.382812 31.070312 78.105469 30.472656 76.800781 C 29.878906 75.492188 29.351562 74.160156 28.890625 72.796875 C 28.429688 71.4375 28.035156 70.058594 27.710938 68.660156 C 27.386719 67.261719 27.136719 65.847656 26.953125 64.421875 C 26.769531 63 26.660156 61.570312 26.621094 60.132812 C 26.578125 58.699219 26.613281 57.261719 26.714844 55.832031 C 26.820312 54.398438 26.996094 52.972656 27.242188 51.558594 C 27.488281 50.144531 27.804688 48.746094 28.1875 47.363281 C 28.574219 45.976562 29.027344 44.617188 29.550781 43.28125 C 30.074219 41.941406 30.660156 40.632812 31.3125 39.351562 C 31.964844 38.074219 32.683594 36.832031 33.457031 35.621094 C 34.234375 34.414062 35.070312 33.25 35.964844 32.125 C 36.859375 31 37.808594 29.921875 38.808594 28.894531 C 39.808594 27.863281 40.859375 26.886719 41.960938 25.960938 C 43.058594 25.039062 44.199219 24.171875 45.386719 23.359375 C 46.574219 22.550781 47.796875 21.800781 49.058594 21.113281 C 50.316406 20.425781 51.609375 19.800781 52.933594 19.242188 C 55.003906 18.367188 57.132812 17.660156 59.316406 17.117188 C 61.496094 16.578125 63.707031 16.210938 65.949219 16.015625 C 68.1875 15.820312 70.429688 15.796875 72.675781 15.953125 C 74.917969 16.109375 77.136719 16.4375 79.328125 16.941406 C 81.519531 17.441406 83.660156 18.113281 85.746094 18.949219 C 87.832031 19.785156 89.84375 20.78125 91.773438 21.933594 C 93.707031 23.082031 95.535156 24.378906 97.265625 25.816406 C 98.996094 27.253906 100.601562 28.816406 102.085938 30.503906 C 102.460938 30.945312 102.792969 31.414062 103.074219 31.917969 C 103.359375 32.417969 103.589844 32.945312 103.773438 33.492188 C 103.953125 34.042969 104.078125 34.601562 104.152344 35.175781 C 104.222656 35.746094 104.238281 36.320312 104.195312 36.898438 C 104.15625 37.472656 104.058594 38.039062 103.910156 38.597656 C 103.757812 39.152344 103.554688 39.691406 103.296875 40.207031 C 103.039062 40.726562 102.734375 41.210938 102.382812 41.671875 C 102.03125 42.128906 101.640625 42.546875 101.207031 42.929688 C 100.773438 43.308594 100.308594 43.644531 99.808594 43.933594 C 99.308594 44.226562 98.785156 44.464844 98.242188 44.652344 C 97.695312 44.839844 97.136719 44.972656 96.5625 45.050781 C 95.992188 45.128906 95.417969 45.152344 94.84375 45.117188 C 94.265625 45.085938 93.699219 44.996094 93.140625 44.851562 C 92.582031 44.707031 92.039062 44.511719 91.519531 44.261719 C 91 44.011719 90.507812 43.710938 90.046875 43.367188 C 89.585938 43.019531 89.160156 42.632812 88.773438 42.207031 C 88.207031 41.558594 87.605469 40.941406 86.976562 40.355469 C 86.34375 39.769531 85.683594 39.214844 84.996094 38.699219 C 84.308594 38.179688 83.597656 37.695312 82.859375 37.25 C 82.125 36.804688 81.367188 36.394531 80.589844 36.027344 C 79.808594 35.65625 79.015625 35.328125 78.203125 35.039062 C 77.390625 34.75 76.566406 34.503906 75.730469 34.300781 C 74.894531 34.097656 74.050781 33.933594 73.195312 33.816406 C 72.34375 33.699219 71.484375 33.625 70.625 33.59375 C 69.765625 33.5625 68.902344 33.574219 68.042969 33.632812 C 67.183594 33.6875 66.332031 33.789062 65.480469 33.933594 C 64.632812 34.074219 63.792969 34.261719 62.960938 34.492188 C 62.132812 34.722656 61.316406 34.992188 60.511719 35.304688 C 59.710938 35.617188 58.925781 35.96875 58.15625 36.359375 C 57.390625 36.753906 56.644531 37.183594 55.921875 37.652344 C 55.199219 38.121094 54.503906 38.625 53.832031 39.164062 C 53.160156 39.703125 52.515625 40.273438 51.902344 40.878906 C 51.289062 41.484375 50.707031 42.117188 50.160156 42.78125 C 49.609375 43.445312 49.097656 44.136719 48.617188 44.851562 C 48.140625 45.566406 47.699219 46.304688 47.296875 47.066406 C 46.894531 47.828125 46.53125 48.609375 46.207031 49.40625 C 45.882812 50.203125 45.597656 51.015625 45.359375 51.84375 C 45.117188 52.671875 44.917969 53.507812 44.761719 54.355469 C 44.605469 55.203125 44.492188 56.054688 44.425781 56.914062 C 44.355469 57.773438 44.332031 58.632812 44.347656 59.492188 C 44.367188 60.355469 44.429688 61.210938 44.535156 62.066406 C 44.640625 62.921875 44.792969 63.769531 44.984375 64.609375 C 45.175781 65.449219 45.410156 66.277344 45.6875 67.09375 C 45.964844 67.90625 46.28125 68.707031 46.640625 69.492188 C 46.996094 70.273438 47.394531 71.039062 47.828125 71.78125 C 48.265625 72.523438 48.738281 73.242188 49.246094 73.9375 C 49.753906 74.632812 50.296875 75.300781 50.875 75.9375 C 51.453125 76.578125 52.058594 77.1875 52.699219 77.765625 C 53.339844 78.34375 54.003906 78.886719 54.699219 79.394531 C 55.394531 79.90625 56.113281 80.378906 56.855469 80.816406 C 57.597656 81.25 58.359375 81.648438 59.144531 82.007812 C 59.925781 82.367188 60.726562 82.683594 61.539062 82.960938 C 62.355469 83.242188 63.183594 83.476562 64.023438 83.667969 C 64.863281 83.863281 65.710938 84.011719 66.5625 84.117188 C 67.417969 84.226562 68.277344 84.289062 69.136719 84.308594 C 70 84.328125 70.859375 84.304688 71.71875 84.234375 C 72.574219 84.167969 73.429688 84.054688 74.277344 83.902344 C 75.125 83.746094 75.960938 83.546875 76.789062 83.308594 C 77.613281 83.066406 78.429688 82.785156 79.226562 82.464844 C 80.023438 82.140625 80.804688 81.777344 81.566406 81.375 C 82.328125 80.972656 83.066406 80.53125 83.785156 80.054688 C 84.5 79.578125 85.191406 79.0625 85.855469 78.515625 C 86.519531 77.96875 87.15625 77.386719 87.761719 76.773438 C 88.367188 76.164062 88.9375 75.519531 89.476562 74.847656 C 89.84375 74.394531 90.25 73.980469 90.695312 73.609375 C 91.140625 73.234375 91.621094 72.910156 92.132812 72.628906 C 92.640625 72.351562 93.175781 72.125 93.730469 71.949219 C 94.285156 71.777344 94.851562 71.65625 95.429688 71.59375 C 96.011719 71.53125 96.589844 71.527344 97.167969 71.578125 C 97.75 71.632812 98.316406 71.738281 98.875 71.902344 C 99.433594 72.066406 99.972656 72.285156 100.488281 72.554688 C 101.003906 72.824219 101.488281 73.140625 101.941406 73.507812 C 102.394531 73.871094 102.808594 74.277344 103.179688 74.722656 C 103.554688 75.171875 103.878906 75.648438 104.160156 76.160156 C 104.4375 76.671875 104.664062 77.203125 104.835938 77.761719 C 105.011719 78.316406 105.128906 78.882812 105.191406 79.460938 C 105.253906 80.039062 105.257812 80.621094 105.207031 81.199219 C 105.152344 81.777344 105.042969 82.347656 104.878906 82.90625 C 104.714844 83.464844 104.5 84 104.230469 84.515625 C 103.957031 85.03125 103.640625 85.515625 103.277344 85.96875 Z M 79.855469 58.945312 C 79.855469 59.605469 79.792969 60.261719 79.660156 60.910156 C 79.53125 61.5625 79.339844 62.191406 79.089844 62.804688 C 78.835938 63.414062 78.523438 63.996094 78.15625 64.546875 C 77.789062 65.097656 77.371094 65.605469 76.902344 66.074219 C 76.433594 66.542969 75.925781 66.960938 75.375 67.328125 C 74.824219 67.695312 74.242188 68.007812 73.628906 68.261719 C 73.019531 68.515625 72.386719 68.707031 71.738281 68.835938 C 71.089844 68.964844 70.433594 69.027344 69.769531 69.027344 C 69.109375 69.027344 68.453125 68.964844 67.804688 68.835938 C 67.15625 68.707031 66.523438 68.515625 65.914062 68.261719 C 65.300781 68.007812 64.71875 67.695312 64.167969 67.328125 C 63.617188 66.960938 63.109375 66.542969 62.640625 66.074219 C 62.171875 65.605469 61.753906 65.097656 61.386719 64.546875 C 61.019531 63.996094 60.707031 63.414062 60.453125 62.804688 C 60.203125 62.191406 60.011719 61.5625 59.878906 60.910156 C 59.75 60.261719 59.6875 59.605469 59.6875 58.945312 C 59.6875 58.28125 59.75 57.625 59.878906 56.976562 C 60.011719 56.328125 60.203125 55.695312 60.453125 55.085938 C 60.707031 54.472656 61.019531 53.890625 61.386719 53.339844 C 61.753906 52.792969 62.171875 52.28125 62.640625 51.8125 C 63.109375 51.34375 63.617188 50.925781 64.167969 50.558594 C 64.71875 50.191406 65.300781 49.882812 65.914062 49.628906 C 66.523438 49.375 67.15625 49.183594 67.804688 49.054688 C 68.453125 48.925781 69.109375 48.859375 69.769531 48.859375 C 70.433594 48.859375 71.089844 48.925781 71.738281 49.054688 C 72.386719 49.183594 73.019531 49.375 73.628906 49.628906 C 74.242188 49.882812 74.824219 50.191406 75.375 50.558594 C 75.925781 50.925781 76.433594 51.34375 76.902344 51.8125 C 77.371094 52.28125 77.789062 52.792969 78.15625 53.339844 C 78.523438 53.890625 78.835938 54.472656 79.089844 55.085938 C 79.339844 55.695312 79.53125 56.328125 79.660156 56.976562 C 79.792969 57.625 79.855469 58.28125 79.855469 58.945312 Z M 79.855469 58.945312 " fill-opacity="1" fill-rule="nonzero"></path></g></svg>