<svg xmlns="http://www.w3.org/2000/svg" fill="none" height="72" viewBox="0 0 96 72" width="96"><path d="m0 0h96v72h-96z" fill="#fff"></path><g clip-rule="evenodd" fill-rule="evenodd"><path d="m72.4817 46-24.4817 21.4962-24.4818-21.4962z" fill="#a4a7e3"></path><path d="m27.5 6.5h41v28h7l-27.5 24-27.5-24h7z" fill="#fff"></path><path d="m26 5h44v28h9.5l-31.5 27.4909-31.5-27.4909h9.5zm3 3v28h-4.5l23.5 20.5091 23.5-20.5091h-4.5v-28z" fill="#000"></path><path d="m40.5 15c-1.3807 0-2.5 1.1193-2.5 2.5s1.1193 2.5 2.5 2.5 2.5-1.1193 2.5-2.5-1.1193-2.5-2.5-2.5zm-5.5 2.5c0-3.0376 2.4624-5.5 5.5-5.5s5.5 2.4624 5.5 5.5-2.4624 5.5-5.5 5.5-5.5-2.4624-5.5-5.5z" fill="#000"></path><path d="m49 31.5c0-3.0376 2.4624-5.5 5.5-5.5s5.5 2.4624 5.5 5.5-2.4624 5.5-5.5 5.5-5.5-2.4624-5.5-5.5z" fill="#000"></path><path d="m37.4393 32.4393 18-18 2.1214 2.1214-18 18z" fill="#000"></path></g></svg>