<svg xmlns="http://www.w3.org/2000/svg" fill="none" height="72" viewBox="0 0 96 72" width="96"><path d="m0 0h96v72h-96z" fill="#fff"></path><g clip-rule="evenodd" fill-rule="evenodd"><path d="m45.5022 12.0029c-.0329-1.6916.2975-3.32844.9576-5.44879l2.8644.89173c-.6165 1.98059-.8465 3.26706-.8225 4.49866.0242 1.2426.3075 2.5341.8912 4.5452.7876 2.2524 1.1464 4.2027 1.1037 6.1488-.0428 1.9489-.4868 3.8032-1.1852 5.8465l-2.8388-.9701c.6464-1.8913.9913-3.4202 1.0247-4.9423.0333-1.5135-.2399-3.1108-.9486-5.128l-.0137-.0389-.0115-.0395c-.6013-2.0674-.9887-3.6905-1.0213-5.3633z" fill="#a4a7e3"></path><path d="m57.0217 17.5009c-.3406-1.4498-.5519-2.5753-.5181-3.8052.0261-.9512.196-1.9015.4877-3.0615l2.9094.7316c-.2663 1.0594-.3807 1.7713-.3983 2.4122-.0223.8139.107 1.6163.4321 3.0043.4781 1.6957.6463 3.1252.5301 4.5988-.0788.999-.285 1.9759-.5726 3.018l-2.8919-.7982c.2587-.9371.4153-1.714.4738-2.4557.0836-1.0604-.0263-2.1375-.435-3.5778l-.0094-.0331z" fill="#a4a7e3"></path><path d="m36.0217 17.5009c-.3406-1.4498-.5519-2.5753-.5181-3.8052.0261-.9512.196-1.9015.4877-3.0615l2.9094.7316c-.2663 1.0594-.3807 1.7713-.3983 2.4122-.0223.8139.107 1.6163.4321 3.0043.4781 1.6957.6463 3.1252.5301 4.5988-.0788.999-.285 1.9759-.5726 3.018l-2.8919-.7982c.2587-.9371.4153-1.714.4738-2.4557.0836-1.0604-.0263-2.1375-.435-3.5778l-.0094-.0331z" fill="#a4a7e3"></path><path d="m77 66h-57v-23h57zm-3-3v-17h-51v17z" fill="#000"></path><path d="m75.5 56h-53v-3h53z" fill="#000"></path></g><path d="m28.5 54.5h39v-21h-39z" fill="#fff"></path><path clip-rule="evenodd" d="m69 56h-42v-24h42zm-3-3v-18h-36v18z" fill="#000" fill-rule="evenodd"></path><path clip-rule="evenodd" d="m54 44.5c0 3.0376-2.4624 5.5-5.5 5.5s-5.5-2.4624-5.5-5.5 2.4624-5.5 5.5-5.5 5.5 2.4624 5.5 5.5z" fill="#000" fill-rule="evenodd"></path></svg>