<svg xmlns="http://www.w3.org/2000/svg" viewBox="0 0 96 72"><path d="M81 39C81 21.327 66.673 7 49 7a31.877 31.877 0 00-21 7.854S36 27 49 35.5s30.566 13 30.566 13A31.991 31.991 0 0081 39z" fill="#A4A7E3"></path><path fill-rule="evenodd" clip-rule="evenodd" d="M37.218 54.124A14.48 14.48 0 0049 60.171a14.48 14.48 0 0011.782-6.047l2.436 1.752C60.044 60.29 54.858 63.17 49 63.17c-5.858 0-11.044-2.88-14.218-7.295l2.436-1.752z"></path><path fill-rule="evenodd" clip-rule="evenodd" d="M16.461 31a7.5 7.5 0 102.947.584C22.72 18.325 34.713 8.5 49 8.5c14.173 0 26.088 9.667 29.511 22.767a7.503 7.503 0 00.23 14.526 30.338 30.338 0 01-4.645 10.545 5.5 5.5 0 101.72 2.744A33.355 33.355 0 0081.79 45.89a7.502 7.502 0 00-.234-14.815C77.997 16.398 64.77 5.5 49 5.5 33.256 5.5 20.048 16.361 16.461 31z"></path></svg>