<svg xmlns="http://www.w3.org/2000/svg" fill="none" height="72" viewBox="0 0 96 72" width="96"><path d="m0 0h96v72h-96z" fill="#fff"></path><path clip-rule="evenodd" d="m30 49c0-10.2173 8.2827-18.5 18.5-18.5s18.5 8.2827 18.5 18.5h3c0-11.8741-9.6259-21.5-21.5-21.5s-21.5 9.6259-21.5 21.5z" fill="#000" fill-rule="evenodd"></path><path d="m48.5 60.5c6.0751 0 11-4.9249 11-11s-4.9249-11-11-11-11 4.9249-11 11 4.9249 11 11 11z" fill="#a4a7e3"></path><path clip-rule="evenodd" d="m48.5 40c-5.2467 0-9.5 4.2533-9.5 9.5s4.2533 9.5 9.5 9.5 9.5-4.2533 9.5-9.5-4.2533-9.5-9.5-9.5zm-12.5 9.5c0-6.9036 5.5964-12.5 12.5-12.5s12.5 5.5964 12.5 12.5-5.5964 12.5-12.5 12.5-12.5-5.5964-12.5-12.5z" fill="#000" fill-rule="evenodd"></path><path d="m53.1274 45.9786c-.5695-.631-1.3508-.9786-2.2003-.9786-.6349 0-1.2164.2051-1.7284.6096-.2583.2042-.4923.454-.6987.7456-.2063-.2915-.4404-.5414-.6988-.7456-.5119-.4045-1.0934-.6096-1.7283-.6096-.8495 0-1.6309.3476-2.2003.9786-.5627.6237-.8726 1.4758-.8726 2.3994 0 .9505.3467 1.8207 1.091 2.7384.6659.821 1.6228 1.6543 2.731 2.6193.3784.3296.8074.7031 1.2528 1.101.1176.1053.2686.1633.4252.1633.1565 0 .3076-.058.4251-.1631.4454-.398.8745-.7717 1.2531-1.1014 1.1081-.9649 2.065-1.7981 2.7309-2.6191.7443-.9177 1.0909-1.7879 1.0909-2.7385 0-.9235-.3099-1.7756-.8726-2.3993z" fill="#fff"></path><path clip-rule="evenodd" d="m66.5 29.5c7.4558 0 13.5 6.0442 13.5 13.5h3c0-9.1127-7.3873-16.5-16.5-16.5z" fill="#000" fill-rule="evenodd"></path><path d="m66.5 9.5c6.0751 0 11 4.9249 11 11s-4.9249 11-11 11-11-4.9249-11-11 4.9249-11 11-11z" fill="#fff"></path><path clip-rule="evenodd" d="m66.5 26c-3.0376 0-5.5-2.4624-5.5-5.5s2.4624-5.5 5.5-5.5 5.5 2.4624 5.5 5.5-2.4624 5.5-5.5 5.5zm-8.5-5.5c0 4.6944 3.8056 8.5 8.5 8.5s8.5-3.8056 8.5-8.5-3.8056-8.5-8.5-8.5-8.5 3.8056-8.5 8.5z" fill="#000" fill-rule="evenodd"></path><path clip-rule="evenodd" d="m30.5 29.5c-7.4558 0-13.5 6.0442-13.5 13.5h-3c0-9.1127 7.3873-16.5 16.5-16.5z" fill="#000" fill-rule="evenodd"></path><path d="m30.5 9.5c-6.0751 0-11 4.9249-11 11s4.9249 11 11 11 11-4.9249 11-11-4.9249-11-11-11z" fill="#fff"></path><path clip-rule="evenodd" d="m30.5 26c3.0376 0 5.5-2.4624 5.5-5.5s-2.4624-5.5-5.5-5.5-5.5 2.4624-5.5 5.5 2.4624 5.5 5.5 5.5zm8.5-5.5c0 4.6944-3.8056 8.5-8.5 8.5s-8.5-3.8056-8.5-8.5 3.8056-8.5 8.5-8.5 8.5 3.8056 8.5 8.5z" fill="#000" fill-rule="evenodd"></path><path d="m48.5 4.5c7.732 0 14 6.268 14 14s-6.268 14-14 14-14-6.268-14-14 6.268-14 14-14z" fill="#fff"></path><g clip-rule="evenodd" fill="#000" fill-rule="evenodd"><path d="m48.5 27c-4.6944 0-8.5-3.8056-8.5-8.5s3.8056-8.5 8.5-8.5 8.5 3.8056 8.5 8.5-3.8056 8.5-8.5 8.5zm-11.5-8.5c0 6.3513 5.1487 11.5 11.5 11.5s11.5-5.1487 11.5-11.5-5.1487-11.5-11.5-11.5-11.5 5.1487-11.5 11.5z"></path><path d="m43 62.5c0 3.0376 2.4624 5.5 5.5 5.5s5.5-2.4624 5.5-5.5-2.4624-5.5-5.5-5.5-5.5 2.4624-5.5 5.5z"></path></g></svg>